<svg xmlns="http://www.w3.org/2000/svg" xmlns:xlink="http://www.w3.org/1999/xlink" width="261" height="70" viewBox="0 0 261 70">
  <defs>
    <clipPath id="clip-Plan_de_travail_1">
      <rect width="261" height="70"/>
    </clipPath>
  </defs>
  <g id="Plan_de_travail_1" data-name="Plan de travail – 1" clip-path="url(#clip-Plan_de_travail_1)">
    <g id="Groupe_1" data-name="Groupe 1" transform="translate(6 -17)">
      <g id="Tracé_1" data-name="Tracé 1" transform="translate(68 25)" fill="#1cab89">
        <path d="M 151.5 42.5 L -4.499987602233887 42.5 L -4.499987602233887 5.5 L 151.5 5.5 L 151.5 42.5 Z" stroke="none"/>
        <path d="M -4.000015258789063 6 L -4.000015258789063 42 L 150.9999694824219 42 L 150.9999694824219 6 L -4.000015258789063 6 M -5.000015258789063 5 L 151.9999694824219 5 L 151.9999694824219 43 L -5.000015258789063 43 L -5.000015258789063 5 Z" stroke="none" fill="#707070"/>
      </g>
      <g id="Tracé_2" data-name="Tracé 2" transform="translate(220 36)" fill="#1cab89">
        <path d="M 33.91660308837891 37.5 L -5.73088264465332 37.5 C -5.269801616668701 37.01316452026367 -4.682106494903564 36.31670379638672 -4.051249980926514 35.38016128540039 C -2.768889904022217 33.4764518737793 -1.047240018844604 30.15926933288574 -0.1276499927043915 25.1672306060791 C 0.7848100066184998 20.21388053894043 0.7371000051498413 13.61655044555664 0.5364099740982056 8.954319953918457 C 0.3669208586215973 5.016997814178467 0.06286022812128067 1.757063984870911 -0.06422070413827896 0.5 L 33.73636627197266 0.5 L 16.65788078308105 16.52425956726074 L 16.31019020080566 16.85049057006836 L 16.61952018737793 17.21330070495605 L 33.91660308837891 37.5 Z" stroke="none"/>
        <path d="M 0.4873733520507813 1 C 0.6334705352783203 2.522880554199219 0.8867568969726563 5.4671630859375 1.035940170288086 8.932819366455078 C 1.329479217529297 15.75167083740234 1.103429794311523 21.24419021606445 0.3640708923339844 25.25780868530273 C -0.7557201385498047 31.33669662475586 -3.022329330444336 35.03570556640625 -4.625118255615234 37 L 32.83322143554688 37 L 16.23904991149902 17.53770065307617 L 15.62036991119385 16.81208992004395 L 16.31575965881348 16.15962982177734 L 32.47273254394531 1 L 0.4873733520507813 1 M -0.6193809509277344 0 L 35 0 L 17 16.88888931274414 L 35 38 L -7 38 C -7 38 -2.369380950927734 34.5766487121582 -0.6193809509277344 25.0766487121582 C 1.130619049072266 15.57665061950684 -0.6193809509277344 0 -0.6193809509277344 0 Z" stroke="none" fill="#707070"/>
      </g>
      <g id="Tracé_3" data-name="Tracé 3" transform="matrix(-1, -0.017, 0.017, -1, 71.107, 74.397)" fill="#1cab89">
        <path d="M 8.296042442321777 38.03176116943359 C 8.363406181335449 36.38349151611328 8.563345909118652 31.13322257995605 8.621021270751953 25.58542633056641 C 8.714692115783691 16.57396507263184 8.402371406555176 11.09493541717529 7.692721843719482 9.300525665283203 C 6.326241493225098 5.841845989227295 4.380061626434326 3.565085887908936 2.988061666488647 2.264185905456543 C 2.500879049301147 1.808887600898743 2.047055006027222 1.438300967216492 1.653535008430481 1.144048810005188 L 40.37181091308594 0.516787052154541 L 25.59392166137695 19.59747505187988 L 25.34451103210449 19.91949653625488 L 25.60945129394531 20.22886657714844 L 40.40974807739258 37.51149749755859 L 8.296042442321777 38.03176116943359 Z" stroke="none"/>
        <path d="M 39.339111328125 1.033588409423828 L 3.031055450439453 1.621803283691406 C 4.659042358398438 3.071651458740234 6.714878082275391 5.464817047119141 8.157672882080078 9.116645812988281 C 8.431102752685547 9.808025360107422 9.263172149658203 11.91200637817383 9.120983123779297 25.59062576293945 C 9.068428039550781 30.64629936218262 8.897861480712891 35.4554443359375 8.8167724609375 37.52325439453125 L 39.33808135986328 37.02878570556641 L 25.22967147827148 20.55408668518066 L 24.6998119354248 19.93535614013672 L 25.19861221313477 19.29131507873535 L 39.339111328125 1.033588409423828 M 41.40447235107422 -3.814697265625e-06 L 25.98922157287598 19.90363502502441 L 41.48140335083008 37.99419403076172 L 7.774192810058594 38.54027557373047 C 7.774192810058594 38.54027557373047 8.881252288818359 13.66543579101563 7.227752685546875 9.484405517578125 C 4.648521423339844 2.956146240234375 0 0.6707763671875 0 0.6707763671875 L 41.40447235107422 -3.814697265625e-06 Z" stroke="none" fill="#707070"/>
      </g>
    </g>
  </g>
</svg>
